ply
format ascii 1.0
element vertex 1194
property float x
property float y
property float z
property uchar red
property uchar green
property uchar blue
end_header
1.199279 -0.891612 0.300578 120 120 120
1.198701 0.245820 0.025196 120 120 120
1.199838 -0.850879 0.557719 120 120 120
1.190894 -1.038373 0.076885 120 120 120
1.197154 1.073652 0.368075 120 120 120
1.197240 -0.316177 0.306530 120 120 120
1.208299 0.391969 0.172061 120 120 120
1.196387 -0.875221 0.484414 120 120 120
1.199134 0.415145 0.305882 120 120 120
1.194039 0.756115 0.323559 120 120 120
1.207036 1.162025 0.127692 120 120 120
1.196520 0.135520 0.283453 120 120 120
1.184757 -0.338745 0.354534 120 120 120
1.202688 -0.633971 0.477927 120 120 120
1.201542 0.879233 0.076650 120 120 120
1.208755 -0.075444 0.165833 120 120 120
1.206555 -1.006077 0.535486 120 120 120
1.200300 -0.167563 0.089928 120 120 120
1.207035 0.414876 0.122894 120 120 120
1.192316 0.957359 0.123182 120 120 120
1.206652 -1.129275 0.117802 120 120 120
1.197756 -0.367071 0.285970 120 120 120
1.201617 0.980211 0.417379 120 120 120
1.202269 -0.383701 0.015989 120 120 120
1.200570 -0.826904 0.603316 120 120 120
1.201450 -0.090130 0.416103 120 120 120
1.196514 -1.064035 0.021371 120 120 120
1.197653 0.834650 0.354122 120 120 120
1.203558 -0.458329 0.192907 120 120 120
1.199939 -0.988132 0.101546 120 120 120
1.196454 -1.144201 0.504218 120 120 120
1.197751 -0.077388 0.080156 120 120 120
1.201776 0.581715 0.113527 120 120 120
1.197392 -1.050716 0.358122 120 120 120
1.198231 0.953875 0.010441 120 120 120
1.201008 0.730510 0.118095 120 120 120
1.192656 -0.978515 0.002945 120 120 120
1.195615 -0.487898 0.438530 120 120 120
1.198662 -0.022006 0.509090 120 120 120
1.192912 -0.678183 0.193270 120 120 120
1.206560 -0.582940 0.586932 120 120 120
1.198052 1.055159 0.208728 120 120 120
1.204109 -0.150095 0.186463 120 120 120
-1.201367 0.587581 0.023340 120 120 120
-1.202610 -1.032469 0.243163 120 120 120
-1.205567 -0.617229 0.509582 120 120 120
-1.192527 0.577956 0.328019 120 120 120
-1.201985 0.384996 0.414621 120 120 120
-1.197858 0.672747 0.552437 120 120 120
-1.190091 -0.840946 0.382356 120 120 120
-1.192366 -0.851661 0.264745 120 120 120
-1.207082 0.686981 0.536595 120 120 120
-1.200777 0.618014 0.023423 120 120 120
-1.211139 -0.332158 0.100170 120 120 120
-1.205588 1.200981 0.092176 120 120 120
-1.196000 -0.621065 0.207222 120 120 120
-1.197647 -1.048357 0.527266 120 120 120
-1.193471 0.325390 0.092281 120 120 120
-1.203600 -0.003754 0.041075 120 120 120
-1.204837 0.263537 0.139207 120 120 120
-1.207430 -1.100163 0.067778 120 120 120
-1.202530 0.138725 0.377555 120 120 120
-1.200539 -0.415897 0.380094 120 120 120
-1.198839 -0.350627 0.077142 120 120 120
-1.202753 -0.432236 0.240416 120 120 120
-1.200045 0.986760 0.061842 120 120 120
-1.205007 -0.988782 0.338655 120 120 120
-1.197245 1.108790 0.539672 120 120 120
-1.196327 0.478872 0.040559 120 120 120
-1.201866 0.732855 0.406780 120 120 120
-1.200314 -0.856745 0.286478 120 120 120
-1.199553 -1.071025 0.477570 120 120 120
-1.193462 0.511020 0.482226 120 120 120
-1.196742 0.622372 0.160463 120 120 120
-1.188196 0.695148 0.145980 120 120 120
-1.201069 -0.871308 0.236537 120 120 120
-1.206684 -0.001975 0.168272 120 120 120
-1.209598 0.257724 0.361419 120 120 120
-1.199612 -0.630531 0.374884 120 120 120
-1.203045 -0.338112 0.440851 120 120 120
-1.197029 -0.502767 0.482272 120 120 120
-1.195287 -0.204846 0.330941 120 120 120
-1.210015 0.424916 0.312248 120 120 120
-1.205436 -0.583831 0.592416 120 120 120
-1.194682 -0.958465 0.192053 120 120 120
-1.192098 0.125097 0.015239 120 120 120
-0.841951 1.204919 0.482276 120 120 120
0.685836 1.203604 0.387353 120 120 120
0.973451 1.200828 0.457308 120 120 120
-0.485431 1.186758 0.375335 120 120 120
-0.388047 1.206630 0.454359 120 120 120
-0.273354 1.204740 0.096666 120 120 120
0.901011 1.206817 0.418091 120 120 120
0.583603 1.196018 0.336723 120 120 120
0.683416 1.199565 0.272432 120 120 120
0.156875 1.199206 0.035918 120 120 120
0.132843 1.191490 0.489849 120 120 120
0.480994 1.214922 0.488194 120 120 120
-0.001065 1.200102 0.530556 120 120 120
-0.939005 1.193820 0.528078 120 120 120
-0.303364 1.201740 0.061787 120 120 120
0.293701 1.205236 0.278270 120 120 120
-0.176404 1.200531 0.508866 120 120 120
-0.872569 1.200842 0.371831 120 120 120
-0.198797 1.194937 0.315313 120 120 120
0.000611 1.199725 0.082217 120 120 120
0.032686 1.197017 0.519305 120 120 120
-0.796824 1.209039 0.009577 120 120 120
-1.037792 1.208746 0.274493 120 120 120
1.142044 1.193952 0.031016 120 120 120
1.170088 1.196746 0.321727 120 120 120
-0.906612 1.191385 0.243123 120 120 120
-0.700480 1.191965 0.424536 120 120 120
0.092482 1.199618 0.166668 120 120 120
-0.590328 1.196734 0.523957 120 120 120
0.639760 1.199787 0.263709 120 120 120
-0.226558 1.206519 0.449273 120 120 120
1.118140 1.201360 0.042238 120 120 120
-0.823465 1.208158 0.221373 120 120 120
0.025880 1.206378 0.049140 120 120 120
-1.066952 1.197850 0.133804 120 120 120
-0.275684 1.191989 0.438382 120 120 120
0.257977 1.201003 0.021214 120 120 120
-1.092073 1.196472 0.272704 120 120 120
0.898528 1.201611 0.549813 120 120 120
-0.332863 1.192412 0.531837 120 120 120
1.024934 1.203256 0.244907 120 120 120
0.595675 1.203827 0.224832 120 120 120
-0.828190 1.192570 0.339002 120 120 120
-0.987199 -1.198247 0.402913 120 120 120
0.747400 -1.191404 0.548591 120 120 120
-0.123203 -1.208590 0.068103 120 120 120
0.963215 -1.193973 0.520725 120 120 120
1.115274 -1.204220 0.359063 120 120 120
0.411252 -1.197940 0.228261 120 120 120
-0.762166 -1.198035 0.177092 120 120 120
0.528141 -1.202443 0.200708 120 120 120
0.451133 -1.183289 0.300854 120 120 120
-0.116467 -1.204650 0.576185 120 120 120
-0.794115 -1.206448 0.299118 120 120 120
-0.817512 -1.205852 0.564490 120 120 120
-0.026815 -1.199580 0.199558 120 120 120
-0.806119 -1.203507 0.354154 120 120 120
-0.240297 -1.211811 0.075517 120 120 120
-1.126688 -1.204206 0.234929 120 120 120
0.202984 -1.196247 0.315561 120 120 120
0.962032 -1.197092 0.540399 120 120 120
1.049019 -1.199261 0.475334 120 120 120
-0.057710 -1.203834 0.315925 120 120 120
-0.256427 -1.202871 0.235389 120 120 120
-1.116373 -1.206482 0.481658 120 120 120
-0.599021 -1.205543 0.015705 120 120 120
-0.083107 -1.211734 0.424894 120 120 120
-0.148499 -1.211086 0.222506 120 120 120
0.377963 -1.188879 0.090986 120 120 120
-1.173337 -1.199310 0.359743 120 120 120
0.072196 -1.201424 0.518128 120 120 120
-0.210055 -1.203894 0.474349 120 120 120
-1.155230 -1.187015 0.018419 120 120 120
0.241045 -1.196585 0.132586 120 120 120
-1.030183 -1.195013 0.079689 120 120 120
-0.299505 -1.203955 0.203897 120 120 120
0.158699 -1.196864 0.528514 120 120 120
-0.315847 -1.200077 0.114808 120 120 120
0.184741 -1.199573 0.001630 120 120 120
-0.272149 -1.195843 0.196188 120 120 120
-0.277175 -1.199051 0.030534 120 120 120
0.136245 -1.191493 0.374081 120 120 120
0.588931 -1.203510 0.576423 120 120 120
-0.342479 -1.201662 0.399804 120 120 120
-0.137240 -1.206585 0.128631 120 120 120
0.932122 -1.203269 0.449272 120 120 120
1.067940 0.774755 0.597125 120 120 120
1.002953 -0.897431 0.599208 120 120 120
-1.155222 -0.721503 0.600758 120 120 120
-0.214283 0.441650 0.599651 120 120 120
-0.141754 0.028920 0.601498 120 120 120
0.622070 -1.027607 0.604613 120 120 120
0.432532 -1.087006 0.595425 120 120 120
-0.599866 0.537912 0.595459 120 120 120
0.438808 -0.229874 0.604854 120 120 120
-0.490505 0.772361 0.595338 120 120 120
-0.549581 -1.127726 0.595589 120 120 120
-0.607305 -1.155968 0.601477 120 120 120
0.746914 -0.908462 0.599792 120 120 120
1.143835 -0.688931 0.600246 120 120 120
-0.466012 0.205159 0.600456 120 120 120
-0.455552 -0.296319 0.598194 120 120 120
-0.947747 -0.268486 0.605818 120 120 120
-1.140056 -0.658271 0.598778 120 120 120
0.984052 -0.515804 0.601221 120 120 120
-0.540691 0.433305 0.600809 120 120 120
0.918021 -0.493368 0.597876 120 120 120
-0.295441 0.517869 0.605287 120 120 120
0.699427 0.279193 0.599195 120 120 120
-0.766989 -0.772608 0.602400 120 120 120
0.620567 0.499612 0.596048 120 120 120
0.949884 0.676210 0.598831 120 120 120
-0.193617 -0.879124 0.601214 120 120 120
0.935217 0.467563 0.598531 120 120 120
0.187037 0.437968 0.598642 120 120 120
-0.280745 -0.377031 0.598829 120 120 120
0.184690 -0.046461 0.602272 120 120 120
0.496266 1.046406 0.600353 120 120 120
0.833849 -0.267851 0.601174 120 120 120
-0.307093 1.026975 0.604944 120 120 120
-0.255305 0.720963 0.596026 120 120 120
-0.967938 -0.112425 0.601494 120 120 120
0.037160 0.742400 0.602642 120 120 120
0.903748 -0.833286 0.597289 120 120 120
0.285660 0.313451 0.605598 120 120 120
-0.835593 0.801083 0.602855 120 120 120
0.131287 1.108273 0.598633 120 120 120
-0.755685 0.058930 0.602046 120 120 120
-0.425851 0.344395 0.601390 120 120 120
0.696365 0.240237 0.807456 200 190 165
0.695899 0.197006 3.099625 200 190 165
0.701368 0.240139 3.239007 200 190 165
0.704694 0.023331 2.806954 200 190 165
0.702992 -0.500743 3.029455 200 190 165
0.700866 -0.081734 2.987434 200 190 165
0.689277 -0.255093 2.319614 200 190 165
0.700762 0.489621 2.553172 200 190 165
0.694493 0.184301 3.229645 200 190 165
0.690683 -0.573124 0.966892 200 190 165
0.698234 0.077408 3.170616 200 190 165
0.699449 0.253793 1.506203 200 190 165
0.685056 -0.561446 1.863517 200 190 165
0.692332 -0.026197 1.913236 200 190 165
0.694825 0.167484 1.413858 200 190 165
0.704899 0.526320 1.445995 200 190 165
0.694460 -0.557176 1.604359 200 190 165
0.698473 0.616827 1.113059 200 190 165
0.700204 -0.313662 3.115884 200 190 165
0.696149 -0.220016 2.888995 200 190 165
0.695145 -0.633226 3.012557 200 190 165
0.695219 -0.367419 1.166739 200 190 165
0.697528 0.339084 3.280210 200 190 165
0.698534 0.648143 2.655565 200 190 165
0.699042 0.577664 3.270149 200 190 165
0.697510 0.066393 1.074160 200 190 165
0.705568 0.482203 1.725026 200 190 165
0.701976 -0.267436 2.002080 200 190 165
0.698897 -0.647910 0.747520 200 190 165
0.690769 -0.332980 2.245029 200 190 165
0.707492 0.348491 3.190253 200 190 165
0.693996 0.453379 3.146576 200 190 165
0.689897 0.193289 2.608676 200 190 165
0.698530 0.125830 0.909516 200 190 165
0.689529 -0.607707 2.677947 200 190 165
0.698103 -0.414903 2.744257 200 190 165
0.704701 -0.047989 0.718827 200 190 165
0.700011 0.089400 1.854760 200 190 165
0.697120 -0.591004 1.375656 200 190 165
0.708240 -0.273667 1.597673 200 190 165
0.695946 0.289391 1.126339 200 190 165
0.712099 -0.078001 2.278805 200 190 165
0.699619 0.618179 1.008323 200 190 165
0.703011 -0.579729 1.204066 200 190 165
0.690575 -0.388992 1.120935 200 190 165
0.702821 -0.588562 1.249584 200 190 165
0.694026 -0.388551 1.944618 200 190 165
0.692208 0.203922 1.649130 200 190 165
0.710793 -0.462116 0.951084 200 190 165
0.714016 -0.328241 1.146444 200 190 165
0.712415 -0.026618 2.966520 200 190 165
0.698974 0.303122 1.228010 200 190 165
0.702714 -0.652077 0.872890 200 190 165
0.700996 -0.093052 1.650320 200 190 165
0.693653 0.252805 0.920207 200 190 165
0.700515 -0.334219 2.482784 200 190 165
0.710585 0.095940 2.046850 200 190 165
0.696990 0.558579 0.991590 200 190 165
0.702329 -0.430422 2.171426 200 190 165
0.709693 0.087077 3.255017 200 190 165
0.702241 0.664792 2.223356 200 190 165
0.699843 0.363515 2.514743 200 190 165
0.697895 -0.517094 2.273245 200 190 165
0.700610 -0.276464 1.630123 200 190 165
0.693737 -0.493852 0.718546 200 190 165
0.698373 0.491969 2.564480 200 190 165
0.706217 0.361757 1.452284 200 190 165
0.704800 -0.119508 1.152212 200 190 165
0.695029 0.140752 2.883666 200 190 165
0.699579 0.385719 3.123122 200 190 165
-0.713193 -0.328837 2.523428 200 190 165
-0.703684 -0.521797 2.100186 200 190 165
-0.694103 -0.545132 2.098675 200 190 165
-0.693403 0.063259 1.600623 200 190 165
-0.701387 -0.211951 2.548288 200 190 165
-0.699185 -0.026086 1.757922 200 190 165
-0.702627 -0.535332 1.426601 200 190 165
-0.704649 0.475272 3.227564 200 190 165
-0.697850 -0.185269 2.957425 200 190 165
-0.694557 0.527509 1.268460 200 190 165
-0.703731 -0.314722 2.511976 200 190 165
-0.701741 -0.270083 3.189084 200 190 165
-0.693418 -0.189744 2.595220 200 190 165
-0.702139 0.297376 1.256746 200 190 165
-0.693927 0.510870 1.553207 200 190 165
-0.701692 -0.554572 0.823879 200 190 165
-0.698640 -0.065331 2.342516 200 190 165
-0.697824 -0.314915 2.897001 200 190 165
-0.697733 -0.327467 2.900768 200 190 165
-0.695342 -0.647591 1.379392 200 190 165
-0.704737 -0.480107 1.866954 200 190 165
-0.699259 -0.213735 1.723833 200 190 165
-0.699034 0.485566 2.209007 200 190 165
-0.702097 0.149990 1.716126 200 190 165
-0.693897 0.428936 2.004068 200 190 165
-0.701571 0.348067 3.071317 200 190 165
-0.700407 0.153345 1.836203 200 190 165
-0.699243 -0.332365 3.081226 200 190 165
-0.691411 0.373273 2.781384 200 190 165
-0.695863 -0.388398 1.840277 200 190 165
-0.709325 0.538367 1.340065 200 190 165
-0.699555 0.440225 2.100533 200 190 165
-0.698619 -0.397254 1.677926 200 190 165
-0.700291 -0.597212 2.447189 200 190 165
-0.693877 0.307470 0.775813 200 190 165
-0.700004 -0.281116 2.696162 200 190 165
-0.701895 -0.415291 2.098329 200 190 165
-0.706437 0.426788 2.168018 200 190 165
-0.713227 -0.527282 3.058578 200 190 165
-0.694106 0.345498 2.168181 200 190 165
-0.699689 -0.233498 2.212027 200 190 165
-0.699708 -0.148746 1.011105 200 190 165
-0.698568 -0.523379 0.822219 200 190 165
-0.696144 -0.458055 1.337139 200 190 165
-0.699154 0.192210 2.212219 200 190 165
-0.705289 0.131337 2.836200 200 190 165
-0.695019 -0.572480 1.710902 200 190 165
-0.689635 -0.590130 1.789831 200 190 165
-0.701521 -0.583351 0.872208 200 190 165
-0.704103 -0.551918 1.711367 200 190 165
-0.697582 0.374636 1.429871 200 190 165
-0.699383 0.345247 1.306989 200 190 165
-0.705947 -0.292408 1.920176 200 190 165
-0.698865 -0.599704 1.868896 200 190 165
-0.700640 0.123603 2.843096 200 190 165
-0.684525 -0.627180 2.776075 200 190 165
-0.686651 0.092335 2.198613 200 190 165
-0.702664 -0.630906 2.982426 200 190 165
-0.701472 -0.312050 2.123349 200 190 165
-0.704699 0.062909 3.064126 200 190 165
-0.708686 0.137231 3.280441 200 190 165
-0.691475 -0.383488 2.427797 200 190 165
-0.705144 0.106713 2.036687 200 190 165
-0.709320 0.177727 2.133462 200 190 165
-0.705728 -0.238466 2.369098 200 190 165
-0.708473 -0.578233 1.941847 200 190 165
-0.698971 -0.068018 1.251710 200 190 165
-0.699391 0.096031 2.440608 200 190 165
-0.697472 -0.532100 1.467703 200 190 165
-0.696500 -0.621167 2.250592 200 190 165
-0.585889 0.708470 1.303596 200 190 165
-0.080978 0.702172 1.876688 200 190 165
-0.651122 0.702416 3.159368 200 190 165
-0.372428 0.695641 2.283344 200 190 165
-0.387105 0.699509 2.254556 200 190 165
-0.217157 0.696710 1.530912 200 190 165
-0.033896 0.707708 2.231476 200 190 165
0.130834 0.701094 2.484821 200 190 165
-0.328074 0.702408 0.936540 200 190 165
-0.354049 0.701245 1.552236 200 190 165
0.149051 0.694864 1.779047 200 190 165
-0.267679 0.702460 0.958505 200 190 165
0.138605 0.691503 0.990858 200 190 165
0.025619 0.703187 2.491215 200 190 165
0.174170 0.694710 1.118145 200 190 165
-0.204027 0.702771 3.148217 200 190 165
-0.570693 0.703199 2.464807 200 190 165
-0.092529 0.703134 2.288092 200 190 165
-0.146304 0.690482 1.011470 200 190 165
0.093765 0.701923 0.716857 200 190 165
0.503975 0.704830 2.776629 200 190 165
-0.177909 0.698340 2.096998 200 190 165
0.038003 0.713109 3.253117 200 190 165
-0.635595 0.692282 1.473545 200 190 165
-0.123553 0.706793 2.755225 200 190 165
0.326661 0.697041 1.801215 200 190 165
-0.687665 0.694779 2.382512 200 190 165
-0.119912 0.697307 1.002640 200 190 165
0.178964 0.690148 1.846976 200 190 165
-0.264823 0.702475 1.400802 200 190 165
0.019207 0.709215 1.358413 200 190 165
-0.145863 0.705674 3.142125 200 190 165
-0.033787 0.701074 1.360995 200 190 165
0.043891 0.697092 3.088265 200 190 165
0.503166 0.706678 2.463016 200 190 165
0.556629 0.690486 2.672009 200 190 165
0.250017 0.698916 1.819028 200 190 165
-0.492097 0.704351 2.598324 200 190 165
0.187037 0.713038 3.219468 200 190 165
-0.257853 0.708954 2.980066 200 190 165
-0.393774 0.706982 3.150464 200 190 165
0.687636 0.702673 0.824763 200 190 165
-0.255378 0.709486 3.291078 200 190 165
0.650824 0.695676 2.440283 200 190 165
-0.518253 0.701117 0.722238 200 190 165
-0.362368 0.700392 3.157523 200 190 165
0.429006 0.695767 1.814953 200 190 165
0.352733 0.705568 3.044481 200 190 165
-0.283398 0.699867 2.975458 200 190 165
-0.317050 0.697548 1.556777 200 190 165
-0.644658 0.691624 1.113642 200 190 165
0.065380 0.709682 0.763540 200 190 165
0.065513 0.699152 1.154179 200 190 165
0.342266 0.698560 1.032694 200 190 165
-0.405585 0.705863 1.402481 200 190 165
0.120015 0.692676 2.806269 200 190 165
0.348900 0.706772 2.625293 200 190 165
0.260686 0.701281 2.118297 200 190 165
-0.221531 0.707370 1.166146 200 190 165
0.496052 0.699715 1.762804 200 190 165
0.204904 0.693554 0.872433 200 190 165
-0.199294 0.710004 0.956036 200 190 165
-0.207219 0.698527 2.611251 200 190 165
-0.219829 0.694750 2.471077 200 190 165
-0.527510 0.691021 1.692526 200 190 165
-0.135479 0.701406 2.027876 200 190 165
-0.392008 0.696635 2.512131 200 190 165
0.543370 0.693236 2.806432 200 190 165
-0.650830 0.694122 1.964168 200 190 165
-0.214253 0.704202 2.193140 200 190 165
-0.585120 -0.699505 2.595215 200 190 165
-0.111923 -0.703016 3.154739 200 190 165
-0.681078 -0.692072 1.783705 200 190 165
-0.023392 -0.696590 2.860715 200 190 165
0.352041 -0.701365 1.175701 200 190 165
-0.262808 -0.687993 2.611492 200 190 165
-0.107795 -0.700966 1.380538 200 190 165
0.602557 -0.696385 2.894436 200 190 165
-0.198674 -0.697768 2.120298 200 190 165
0.608453 -0.695075 1.257667 200 190 165
0.570580 -0.709877 3.004303 200 190 165
0.317511 -0.699752 2.498307 200 190 165
0.251084 -0.701121 2.115943 200 190 165
0.111946 -0.699806 1.214887 200 190 165
0.081986 -0.707157 2.446914 200 190 165
-0.018705 -0.695634 2.466395 200 190 165
-0.061663 -0.706255 2.785566 200 190 165
0.311898 -0.699111 0.927928 200 190 165
0.369750 -0.693811 1.442155 200 190 165
-0.578597 -0.696469 1.019917 200 190 165
-0.249835 -0.710609 2.062960 200 190 165
-0.239443 -0.703719 1.226796 200 190 165
0.371827 -0.703059 1.670298 200 190 165
0.526367 -0.714792 1.338826 200 190 165
0.261326 -0.707987 1.633855 200 190 165
0.495343 -0.692374 2.386448 200 190 165
0.245756 -0.697793 0.953596 200 190 165
0.355780 -0.700757 1.622426 200 190 165
0.334378 -0.703451 2.898022 200 190 165
-0.529070 -0.703560 0.746858 200 190 165
0.364291 -0.692302 3.222523 200 190 165
0.554761 -0.693641 1.829084 200 190 165
0.478330 -0.706527 0.760159 200 190 165
-0.622210 -0.701746 2.218615 200 190 165
0.037927 -0.698123 2.850195 200 190 165
-0.365347 -0.691642 1.906382 200 190 165
0.682336 -0.704689 1.491172 200 190 165
-0.133322 -0.690384 2.278756 200 190 165
0.698090 -0.700809 1.173005 200 190 165
0.271108 -0.700365 1.786352 200 190 165
-0.141538 -0.702403 1.367164 200 190 165
-0.040809 -0.693063 2.181714 200 190 165
-0.150230 -0.707890 2.017595 200 190 165
0.190719 -0.696514 2.915300 200 190 165
0.093107 -0.704268 1.696880 200 190 165
0.641172 -0.708611 1.150982 200 190 165
-0.629390 -0.701377 3.063460 200 190 165
-0.327014 -0.705393 1.096551 200 190 165
-0.161500 -0.700903 1.582949 200 190 165
-0.210034 -0.690166 2.905706 200 190 165
-0.293095 -0.691108 1.045609 200 190 165
-0.403464 -0.692862 3.166384 200 190 165
-0.109801 -0.701841 1.633053 200 190 165
0.383061 -0.699462 3.131108 200 190 165
0.013425 -0.709624 2.819158 200 190 165
-0.330297 -0.700731 1.607965 200 190 165
0.101389 -0.700731 1.315851 200 190 165
-0.305592 -0.697961 1.187927 200 190 165
-0.336789 -0.702282 2.881219 200 190 165
0.412148 -0.698050 1.001508 200 190 165
-0.219459 -0.696878 2.587641 200 190 165
0.501643 -0.698834 2.158254 200 190 165
0.315001 -0.687078 1.322382 200 190 165
0.411742 -0.697954 2.837698 200 190 165
-0.126459 -0.705966 1.310160 200 190 165
-0.644154 -0.705495 2.335624 200 190 165
0.180664 -0.717138 0.711847 200 190 165
0.026982 -0.703907 3.142452 200 190 165
-0.653061 -0.702021 1.059489 200 190 165
-0.621555 -0.712009 1.839581 200 190 165
-0.159377 0.515009 3.302088 200 190 165
-0.604127 -0.418587 3.294284 200 190 165
0.617868 -0.677629 3.301640 200 190 165
-0.332603 -0.146361 3.307645 200 190 165
-0.714011 -0.297283 3.298814 200 190 165
0.148296 0.171522 3.303526 200 190 165
0.152426 0.204928 3.298197 200 190 165
0.171296 -0.660525 3.300191 200 190 165
0.218537 0.109343 3.304702 200 190 165
-0.390381 -0.113949 3.301229 200 190 165
-0.369860 0.510036 3.301303 200 190 165
-0.314984 -0.464614 3.298033 200 190 165
0.412392 0.357178 3.300514 200 190 165
0.496366 0.251220 3.291683 200 190 165
-0.108414 -0.034159 3.297932 200 190 165
0.079489 0.136253 3.309269 200 190 165
0.615848 -0.331181 3.303768 200 190 165
0.375962 -0.672913 3.299143 200 190 165
-0.432187 0.630664 3.295307 200 190 165
-0.351281 0.027229 3.300454 200 190 165
0.578447 0.224134 3.304636 200 190 165
-0.019317 0.270094 3.304911 200 190 165
0.667194 0.620239 3.300908 200 190 165
-0.447847 -0.515985 3.296558 200 190 165
-0.296328 -0.503177 3.296689 200 190 165
0.361190 0.454224 3.304625 200 190 165
-0.494377 -0.604550 3.296330 200 190 165
-0.241709 0.256894 3.300335 200 190 165
0.362912 -0.056943 3.301252 200 190 165
0.205044 0.581561 3.305172 200 190 165
0.542029 -0.528370 3.304008 200 190 165
0.296600 0.388007 3.303944 200 190 165
0.572844 -0.115322 3.295759 200 190 165
-0.472064 -0.029362 3.299112 200 190 165
-0.182903 -0.150150 3.302783 200 190 165
0.425952 0.208421 3.296863 200 190 165
0.249749 0.197257 3.297734 200 190 165
-0.502837 -0.622734 3.293313 200 190 165
-0.146265 0.493512 3.308804 200 190 165
0.208609 0.409857 3.307346 200 190 165
0.170905 0.412899 3.292764 200 190 165
0.694003 0.312103 3.291558 200 190 165
0.510901 0.673398 3.296683 200 190 165
0.352911 0.426286 3.294328 200 190 165
-0.590621 -0.635251 3.295349 200 190 165
0.590865 -0.363964 3.296701 200 190 165
-0.275107 -0.506003 3.300645 200 190 165
0.195693 -0.668212 3.303802 200 190 165
0.414655 -0.276562 3.300060 200 190 165
0.337263 0.588396 3.292955 200 190 165
0.267018 -0.099505 3.294676 200 190 165
0.173647 0.498507 3.298712 200 190 165
0.295031 -0.346162 3.308361 200 190 165
-0.698849 0.540580 3.298388 200 190 165
0.172682 -0.603323 3.295435 200 190 165
0.068297 0.130579 3.307698 200 190 165
-0.280098 0.533538 3.300957 200 190 165
-0.372217 -0.496099 3.292231 200 190 165
-0.279222 -0.224848 3.302829 200 190 165
0.533917 0.233913 3.295822 200 190 165
-0.534763 -0.140448 3.296230 200 190 165
-0.555846 0.302521 3.296498 200 190 165
0.502599 -0.553508 3.302285 200 190 165
-0.000087 -0.353658 3.301502 200 190 165
-0.307520 0.351774 3.303983 200 190 165
0.658214 -0.319346 3.296522 200 190 165
0.063739 -0.264234 3.297364 200 190 165
-0.620012 0.139049 3.302081 200 190 165
-0.480545 0.254846 3.295787 200 190 165
0.350177 -0.489270 3.310388 200 190 165
0.500865 -0.416825 3.519261 180 170 150
0.508181 -0.251715 3.677031 180 170 150
0.497359 -0.049189 3.635468 180 170 150
0.500973 0.436435 3.821275 180 170 150
0.494070 -0.115473 4.297112 180 170 150
0.509147 0.292326 4.170349 180 170 150
0.499155 0.407197 4.137872 180 170 150
0.493744 -0.189179 4.356159 180 170 150
0.504200 -0.480442 4.294220 180 170 150
0.493317 -0.068828 3.747525 180 170 150
0.498581 -0.026508 3.802111 180 170 150
0.498077 0.369661 4.198406 180 170 150
0.501218 0.248464 3.638048 180 170 150
0.504452 -0.054124 3.480922 180 170 150
0.500837 0.247226 3.438948 180 170 150
0.500991 -0.096722 3.552966 180 170 150
0.497842 0.348540 4.313654 180 170 150
0.493607 -0.209055 4.280665 180 170 150
0.504513 -0.313945 4.111579 180 170 150
0.505345 -0.245169 3.841530 180 170 150
0.505563 0.112739 3.747689 180 170 150
0.489286 -0.310278 3.984762 180 170 150
0.506739 0.286225 4.393151 180 170 150
0.501579 -0.176141 3.655240 180 170 150
0.509881 -0.425330 3.606568 180 170 150
0.496479 -0.471019 3.649872 180 170 150
0.509534 0.230356 3.517217 180 170 150
0.492916 0.144346 3.695582 180 170 150
0.496386 -0.263450 3.881177 180 170 150
0.498293 -0.063789 3.843484 180 170 150
0.503707 -0.389821 3.962505 180 170 150
0.503546 0.402244 3.406938 180 170 150
0.499782 -0.420220 3.986006 180 170 150
0.504087 -0.178792 3.650907 180 170 150
0.496085 0.488684 3.705214 180 170 150
0.500873 0.425203 4.019889 180 170 150
0.490280 -0.475785 3.667618 180 170 150
0.512475 -0.423702 3.936559 180 170 150
0.501716 0.417462 3.457518 180 170 150
0.484799 -0.472422 3.429632 180 170 150
0.498524 -0.220585 3.562237 180 170 150
0.489980 0.466910 4.169818 180 170 150
0.505170 0.441592 3.980339 180 170 150
-0.491488 0.316801 4.108033 180 170 150
-0.513004 -0.208995 4.043003 180 170 150
-0.496923 -0.201914 3.866417 180 170 150
-0.496172 0.326343 3.617109 180 170 150
-0.490683 -0.325362 4.255671 180 170 150
-0.493747 -0.038617 3.577712 180 170 150
-0.498037 -0.191010 3.683540 180 170 150
-0.502263 0.401508 3.870761 180 170 150
-0.501926 0.415734 3.865657 180 170 150
-0.492699 0.446268 4.317897 180 170 150
-0.498359 0.071125 4.188645 180 170 150
-0.506347 -0.227377 3.510214 180 170 150
-0.507174 0.106062 3.453277 180 170 150
-0.497876 -0.029558 4.017892 180 170 150
-0.512865 0.270694 4.296769 180 170 150
-0.495670 -0.285257 4.264921 180 170 150
-0.500419 -0.013076 4.026777 180 170 150
-0.495806 -0.029040 4.254290 180 170 150
-0.502448 -0.205878 3.407348 180 170 150
-0.493750 0.323500 4.069348 180 170 150
-0.501565 0.214677 3.519443 180 170 150
-0.506854 -0.296905 4.025531 180 170 150
-0.508659 0.251055 4.065010 180 170 150
-0.504444 0.094311 4.047585 180 170 150
-0.504882 -0.356253 3.855738 180 170 150
-0.508577 -0.171882 4.135906 180 170 150
-0.485497 0.021707 4.124653 180 170 150
-0.510085 0.200480 4.303810 180 170 150
-0.502544 0.353868 3.459821 180 170 150
-0.492609 0.168098 3.775540 180 170 150
-0.502423 -0.393504 3.881741 180 170 150
-0.498370 0.346905 4.196367 180 170 150
-0.498148 -0.387408 3.600724 180 170 150
-0.500604 0.205181 4.372759 180 170 150
-0.508598 -0.418655 3.493571 180 170 150
-0.498467 0.198552 4.017583 180 170 150
-0.503993 0.314026 3.601634 180 170 150
-0.489897 -0.002395 4.205867 180 170 150
-0.497081 -0.110247 3.800435 180 170 150
-0.499372 -0.473085 4.193676 180 170 150
-0.503669 -0.053452 3.780289 180 170 150
-0.501153 0.162153 4.254760 180 170 150
-0.500354 0.359326 3.735354 180 170 150
0.108221 0.491163 3.785316 180 170 150
0.341322 0.488708 4.189628 180 170 150
0.165098 0.502030 4.223385 180 170 150
0.013249 0.504295 3.969224 180 170 150
-0.326535 0.502207 4.106323 180 170 150
-0.207752 0.500195 3.961086 180 170 150
-0.494632 0.497969 3.801049 180 170 150
0.109899 0.502107 4.035613 180 170 150
0.066165 0.500879 3.657142 180 170 150
0.164225 0.504202 4.067076 180 170 150
0.093216 0.500270 3.773697 180 170 150
-0.344244 0.512525 3.962075 180 170 150
-0.444529 0.516773 4.312218 180 170 150
-0.138621 0.496414 3.692046 180 170 150
-0.046428 0.501218 3.501903 180 170 150
0.384485 0.497140 4.379405 180 170 150
0.327092 0.499392 3.969990 180 170 150
0.431948 0.502519 3.733117 180 170 150
-0.035991 0.493398 3.571088 180 170 150
-0.079989 0.501304 4.329625 180 170 150
0.155467 0.493339 3.949271 180 170 150
0.033911 0.505019 4.030973 180 170 150
0.106234 0.502377 3.848138 180 170 150
0.025998 0.494293 3.499565 180 170 150
-0.062574 0.500826 4.072128 180 170 150
-0.272640 0.508073 3.676443 180 170 150
0.312477 0.503483 3.530270 180 170 150
-0.303618 0.490072 4.217781 180 170 150
-0.388391 0.504656 3.703716 180 170 150
0.405651 0.492870 3.806691 180 170 150
0.314413 0.490395 4.170107 180 170 150
-0.483914 0.493943 3.614031 180 170 150
0.411674 0.507207 3.728388 180 170 150
-0.091849 0.501776 4.327502 180 170 150
-0.396416 0.508107 4.373856 180 170 150
0.146704 0.505701 4.020587 180 170 150
-0.494150 0.496662 4.033261 180 170 150
0.312678 0.498441 3.788645 180 170 150
-0.426223 0.500477 3.536119 180 170 150
-0.422007 0.501379 3.811808 180 170 150
0.323195 0.506185 3.457877 180 170 150
-0.095820 0.502858 3.798354 180 170 150
-0.102122 0.484668 3.923800 180 170 150
0.031018 -0.501305 3.603033 180 170 150
0.303177 -0.500649 3.920903 180 170 150
-0.143768 -0.495753 4.359668 180 170 150
0.210136 -0.499980 3.560490 180 170 150
0.462118 -0.500965 3.974620 180 170 150
-0.160309 -0.503813 3.642149 180 170 150
-0.439126 -0.496718 3.641623 180 170 150
-0.212756 -0.501142 3.739727 180 170 150
0.486597 -0.501052 3.991177 180 170 150
-0.315337 -0.503256 3.765562 180 170 150
-0.055887 -0.498171 3.484528 180 170 150
-0.034964 -0.498820 3.908852 180 170 150
0.395681 -0.501587 3.830216 180 170 150
0.178288 -0.505453 4.078936 180 170 150
-0.326132 -0.489712 3.974152 180 170 150
-0.052048 -0.499781 3.566738 180 170 150
-0.471987 -0.491157 4.392390 180 170 150
-0.402005 -0.517185 4.285785 180 170 150
-0.131353 -0.499758 3.479109 180 170 150
0.469470 -0.493567 4.060205 180 170 150
-0.082505 -0.499845 4.240226 180 170 150
0.208599 -0.502778 3.805182 180 170 150
0.215292 -0.497799 4.133868 180 170 150
-0.323855 -0.509770 4.117488 180 170 150
0.409071 -0.500137 4.085390 180 170 150
0.298728 -0.504454 4.389938 180 170 150
0.282641 -0.503380 3.872139 180 170 150
0.062740 -0.499849 4.170845 180 170 150
0.127626 -0.492760 3.461125 180 170 150
-0.445782 -0.497306 3.672829 180 170 150
0.325996 -0.497179 3.619236 180 170 150
-0.171532 -0.507440 4.223134 180 170 150
-0.369359 -0.494828 3.681908 180 170 150
-0.244607 -0.506383 3.446506 180 170 150
0.244384 -0.498621 3.722516 180 170 150
-0.103082 -0.503625 3.728340 180 170 150
-0.432328 -0.497767 4.237543 180 170 150
-0.370301 -0.494557 3.693135 180 170 150
0.222252 -0.498125 3.750101 180 170 150
0.018560 -0.497949 3.728637 180 170 150
0.057003 -0.506715 3.718657 180 170 150
-0.044747 -0.495431 3.414899 180 170 150
-0.478070 -0.503871 3.908771 180 170 150
0.183752 -0.048342 3.407694 180 170 150
0.312882 0.340150 3.398774 180 170 150
0.074838 -0.383543 3.398168 180 170 150
-0.065881 -0.240427 3.410314 180 170 150
-0.309180 -0.200219 3.395665 180 170 150
0.304047 -0.156327 3.400631 180 170 150
-0.066077 -0.120080 3.400367 180 170 150
-0.323626 0.071969 3.396575 180 170 150
-0.082077 0.435062 3.396790 180 170 150
0.114469 0.485694 3.402587 180 170 150
0.367555 -0.003670 3.411151 180 170 150
-0.478209 -0.287814 3.401328 180 170 150
-0.380603 0.233411 3.400086 180 170 150
-0.356827 0.142491 3.392355 180 170 150
-0.181126 -0.015070 3.400959 180 170 150
0.255382 -0.194051 3.399946 180 170 150
-0.335894 -0.212509 3.401768 180 170 150
0.435323 0.052827 3.394746 180 170 150
-0.217396 -0.355683 3.403423 180 170 150
-0.432740 -0.163021 3.398601 180 170 150
0.118000 -0.042663 3.398892 180 170 150
0.307259 0.501535 3.400169 180 170 150
0.066737 -0.158262 3.395833 180 170 150
0.292124 -0.411084 3.404186 180 170 150
0.265392 0.378261 3.398325 180 170 150
0.286745 -0.402797 3.398785 180 170 150
0.076511 0.308432 3.399553 180 170 150
-0.100699 0.340416 3.398033 180 170 150
-0.321887 0.026038 3.405034 180 170 150
0.064251 0.294646 3.399889 180 170 150
-0.078937 -0.248275 3.396914 180 170 150
0.218313 -0.385761 3.398111 180 170 150
-0.126007 -0.028565 3.407566 180 170 150
0.292992 -0.067670 3.400081 180 170 150
0.066147 0.172792 3.403163 180 170 150
0.178558 0.470799 3.397492 180 170 150
-0.028543 0.069758 3.402673 180 170 150
-0.486734 -0.304950 3.395299 180 170 150
-0.252709 -0.282648 3.404839 180 170 150
0.018580 -0.304368 3.400995 180 170 150
0.064555 0.329419 3.394750 180 170 150
-0.419354 -0.253506 3.404561 180 170 150
-0.002407 -0.460616 3.401776 180 170 150
-0.121683 -0.286355 4.891263 178 58 46
0.185495 -0.245526 4.942314 178 58 46
0.254185 -0.363069 4.726818 178 58 46
-0.028939 -0.411518 4.643206 178 58 46
0.447644 -0.511834 4.492972 178 58 46
0.473609 -0.524411 4.423429 178 58 46
-0.090554 -0.221332 4.996370 178 58 46
-0.375913 -0.512459 4.469768 178 58 46
0.104186 -0.312104 4.817542 178 58 46
0.116556 -0.283999 4.884334 178 58 46
0.043555 -0.467059 4.555575 178 58 46
0.197903 -0.395579 4.683817 178 58 46
-0.104804 -0.282280 4.903613 178 58 46
0.075089 -0.112910 5.211069 178 58 46
0.079853 -0.492899 4.506602 178 58 46
-0.383953 -0.445015 4.609442 178 58 46
0.021322 -0.340015 4.794644 178 58 46
0.306717 -0.409453 4.641346 178 58 46
0.133414 -0.354893 4.761689 178 58 46
0.132790 -0.486126 4.536392 178 58 46
-0.145925 -0.387922 4.709130 178 58 46
0.232868 -0.535869 4.442604 178 58 46
0.145596 -0.553260 4.407160 178 58 46
-0.040672 -0.250429 4.946470 178 58 46
0.414894 -0.465186 4.551163 178 58 46
0.241844 -0.502701 4.481230 178 58 46
0.535075 -0.543554 4.411288 178 58 46
0.483191 -0.508515 4.486755 178 58 46
0.128426 -0.143050 5.137622 178 58 46
-0.143868 -0.232288 4.987631 178 58 46
-0.233486 -0.507796 4.471467 178 58 46
0.132132 -0.502159 4.490677 178 58 46
0.371212 -0.496483 4.488901 178 58 46
-0.247353 -0.531432 4.412719 178 58 46
0.318158 -0.441872 4.603400 178 58 46
0.388469 -0.500080 4.474215 178 58 46
0.454843 -0.550425 4.405649 178 58 46
0.508048 -0.511243 4.463451 178 58 46
0.050339 -0.055372 5.299304 178 58 46
-0.072129 -0.176029 5.077529 178 58 46
0.004298 -0.264101 4.915533 178 58 46
0.378274 -0.535091 4.419464 178 58 46
0.139456 -0.206625 5.007746 178 58 46
0.025529 -0.504360 4.482112 178 58 46
-0.400451 -0.483748 4.521394 178 58 46
-0.249619 -0.379579 4.717357 178 58 46
0.349543 -0.490825 4.495946 178 58 46
-0.269260 -0.382317 4.711871 178 58 46
0.106767 -0.430390 4.626035 178 58 46
0.288826 -0.420468 4.640674 178 58 46
0.351452 -0.474957 4.535079 178 58 46
-0.101231 -0.139712 5.149215 178 58 46
0.393937 -0.463853 4.558859 178 58 46
0.207465 -0.273267 4.898259 178 58 46
-0.085302 -0.180810 5.072728 178 58 46
0.265540 -0.393375 4.679152 178 58 46
0.025087 -0.046107 5.305814 178 58 46
-0.415541 -0.459076 4.573021 178 58 46
0.180031 -0.397427 4.674740 178 58 46
-0.222323 -0.422286 4.629947 178 58 46
0.467423 -0.535634 4.432130 178 58 46
-0.024932 -0.520143 4.458055 178 58 46
0.242069 -0.386138 4.701411 178 58 46
0.286058 -0.506448 4.466351 178 58 46
0.079321 -0.322160 4.814505 178 58 46
0.547825 0.529594 4.421664 178 58 46
0.526513 -0.282772 4.450848 178 58 46
0.358617 0.007241 4.756317 178 58 46
0.226459 0.057985 4.970540 178 58 46
0.495398 -0.216226 4.490595 178 58 46
0.382801 0.275334 4.701226 178 58 46
0.410558 -0.179119 4.660867 178 58 46
0.541773 -0.248186 4.425148 178 58 46
0.543413 0.209729 4.413994 178 58 46
0.417734 0.249366 4.645709 178 58 46
0.535971 0.045012 4.418229 178 58 46
0.272491 -0.231977 4.893705 178 58 46
0.542256 0.000070 4.404084 178 58 46
0.132904 -0.114115 5.168211 178 58 46
0.281926 0.069125 4.880316 178 58 46
0.429711 -0.216804 4.617009 178 58 46
0.533949 0.447636 4.418453 178 58 46
0.384176 0.066679 4.694147 178 58 46
0.494631 0.285063 4.494514 178 58 46
0.507068 0.214492 4.477730 178 58 46
0.553650 0.201723 4.406849 178 58 46
0.525828 -0.321686 4.452605 178 58 46
0.172061 -0.067223 5.070633 178 58 46
0.318365 0.194990 4.819230 178 58 46
0.539607 0.516755 4.400284 178 58 46
0.432025 0.414348 4.624244 178 58 46
0.514295 -0.177088 4.461362 178 58 46
0.400610 0.114181 4.683317 178 58 46
0.446758 0.298667 4.573483 178 58 46
0.490708 -0.155364 4.513772 178 58 46
0.382052 -0.005410 4.712071 178 58 46
0.416787 -0.211677 4.641143 178 58 46
0.525095 0.450530 4.448913 178 58 46
0.225687 -0.090713 4.987836 178 58 46
0.366814 0.024261 4.732021 178 58 46
0.509322 -0.073149 4.471114 178 58 46
0.460115 0.343806 4.548539 178 58 46
0.544784 0.539132 4.404045 178 58 46
0.459049 0.190645 4.579488 178 58 46
0.322611 0.154849 4.806562 178 58 46
0.385014 -0.115795 4.712697 178 58 46
0.272627 -0.132847 4.892484 178 58 46
0.532457 -0.052122 4.423513 178 58 46
0.386496 -0.136462 4.705569 178 58 46
0.530677 0.054075 4.444091 178 58 46
0.378671 0.302765 4.712587 178 58 46
0.521727 -0.167046 4.450117 178 58 46
0.184768 -0.034875 5.051242 178 58 46
0.524252 0.066345 4.468701 178 58 46
0.157497 0.027170 5.097477 178 58 46
0.418439 0.313371 4.623950 178 58 46
0.089114 0.073620 5.247591 178 58 46
0.407190 -0.128241 4.664152 178 58 46
0.161187 0.100404 5.112824 178 58 46
0.432857 0.265158 4.605180 178 58 46
0.315318 0.139084 4.822693 178 58 46
0.415200 0.101558 4.649901 178 58 46
0.166610 -0.001750 5.096695 178 58 46
0.084890 -0.004766 5.245993 178 58 46
0.526481 0.479816 4.445530 178 58 46
0.445439 -0.267102 4.586795 178 58 46
0.205852 -0.064029 5.007112 178 58 46
0.215063 0.195692 5.027594 178 58 46
0.426781 -0.059689 4.616408 178 58 46
0.386424 0.351243 4.674828 178 58 46
-0.066545 0.525037 4.464128 178 58 46
0.036176 0.206660 4.998569 178 58 46
-0.419538 0.418009 4.633948 178 58 46
-0.258762 0.371432 4.730049 178 58 46
-0.289644 0.438308 4.579915 178 58 46
-0.361188 0.526118 4.427602 178 58 46
0.241744 0.409926 4.668934 178 58 46
-0.185225 0.233076 4.980987 178 58 46
-0.428564 0.482621 4.529287 178 58 46
-0.454357 0.526466 4.440469 178 58 46
-0.549760 0.542369 4.408050 178 58 46
0.169585 0.385313 4.716426 178 58 46
0.128649 0.474932 4.529014 178 58 46
-0.492939 0.533242 4.418859 178 58 46
-0.453203 0.518185 4.466146 178 58 46
0.251772 0.333815 4.796472 178 58 46
-0.343981 0.505415 4.474833 178 58 46
0.199127 0.503396 4.464584 178 58 46
-0.239103 0.267101 4.893464 178 58 46
0.049175 0.077636 5.267560 178 58 46
-0.180444 0.481660 4.507914 178 58 46
-0.490883 0.495727 4.493414 178 58 46
-0.525711 0.540522 4.411483 178 58 46
-0.120532 0.337200 4.788922 178 58 46
-0.447206 0.529506 4.444135 178 58 46
0.033603 0.399097 4.675661 178 58 46
0.071065 0.092543 5.223061 178 58 46
-0.089791 0.409666 4.653711 178 58 46
-0.313561 0.386525 4.694433 178 58 46
-0.277134 0.488920 4.501952 178 58 46
0.087212 0.422279 4.638798 178 58 46
-0.245679 0.332570 4.782365 178 58 46
0.203578 0.224521 4.995694 178 58 46
-0.423645 0.497256 4.487169 178 58 46
-0.031861 0.381872 4.691410 178 58 46
-0.174184 0.380906 4.698981 178 58 46
0.062406 0.153925 5.135144 178 58 46
-0.121323 0.481748 4.523572 178 58 46
-0.478615 0.530769 4.435299 178 58 46
-0.350283 0.516469 4.465523 178 58 46
-0.099549 0.510934 4.484685 178 58 46
0.127769 0.399757 4.640637 178 58 46
0.027612 0.199574 5.044491 178 58 46
-0.051361 0.440412 4.597280 178 58 46
-0.148238 0.503439 4.492361 178 58 46
-0.109622 0.367434 4.725658 178 58 46
-0.223813 0.449638 4.563686 178 58 46
-0.396857 0.432015 4.618070 178 58 46
-0.523325 0.522123 4.418164 178 58 46
-0.533899 0.522094 4.432948 178 58 46
-0.197478 0.531337 4.438186 178 58 46
-0.271674 0.443494 4.597406 178 58 46
-0.265681 0.507600 4.479110 178 58 46
-0.541030 0.554438 4.403549 178 58 46
-0.553110 0.546334 4.400800 178 58 46
-0.170509 0.348624 4.760050 178 58 46
0.095191 0.382906 4.704661 178 58 46
-0.315397 0.404504 4.660699 178 58 46
-0.479157 0.523569 4.451941 178 58 46
-0.523224 0.548696 4.411379 178 58 46
-0.283137 0.390484 4.692008 178 58 46
0.060791 0.152374 5.124656 178 58 46
-0.404728 0.501773 4.500972 178 58 46
-0.502101 0.512798 4.450856 178 58 46
-0.125213 0.270582 4.911934 178 58 46
-0.357475 -0.210097 4.725802 178 58 46
-0.542871 -0.548880 4.402925 178 58 46
-0.452543 -0.415643 4.575192 178 58 46
-0.535749 0.323550 4.431902 178 58 46
-0.318362 0.232420 4.842550 178 58 46
-0.537624 -0.526308 4.422736 178 58 46
-0.552189 -0.473056 4.417926 178 58 46
-0.359329 0.200567 4.752706 178 58 46
-0.468848 -0.467696 4.548471 178 58 46
-0.452185 -0.133879 4.580236 178 58 46
-0.492640 -0.360097 4.497722 178 58 46
-0.250879 -0.069446 4.928413 178 58 46
-0.168488 0.060974 5.110019 178 58 46
-0.546949 -0.499717 4.405822 178 58 46
-0.550865 -0.317136 4.405991 178 58 46
-0.413820 0.282067 4.650737 178 58 46
-0.544370 -0.549015 4.400649 178 58 46
-0.414440 -0.096258 4.642384 178 58 46
-0.108215 -0.082160 5.202702 178 58 46
-0.174561 -0.098418 5.090793 178 58 46
-0.368424 -0.226349 4.728985 178 58 46
-0.449609 -0.361910 4.574015 178 58 46
-0.463083 -0.436907 4.553929 178 58 46
-0.511192 0.359658 4.470101 178 58 46
-0.522026 0.013134 4.455193 178 58 46
-0.341161 -0.308669 4.778168 178 58 46
-0.507230 -0.062317 4.481860 178 58 46
-0.295041 0.158617 4.864776 178 58 46
-0.447932 -0.385209 4.606112 178 58 46
-0.484804 -0.338936 4.516937 178 58 46
-0.512712 -0.442792 4.462769 178 58 46
-0.542660 -0.208682 4.395993 178 58 46
-0.527701 -0.017677 4.439708 178 58 46
-0.415240 0.178258 4.642038 178 58 46
-0.528946 -0.096240 4.434484 178 58 46
-0.478962 -0.295047 4.508762 178 58 46
-0.141872 -0.102962 5.145757 178 58 46
-0.481424 -0.237769 4.513134 178 58 46
-0.306604 0.184080 4.829075 178 58 46
-0.481929 -0.357566 4.515791 178 58 46
-0.496413 0.164679 4.485604 178 58 46
-0.205514 -0.030987 5.012687 178 58 46
-0.099146 -0.080257 5.233097 178 58 46
-0.491470 -0.302128 4.508009 178 58 46
-0.348632 0.129860 4.781159 178 58 46
-0.547981 -0.497721 4.405952 178 58 46
-0.510579 0.250540 4.460961 178 58 46
-0.406562 -0.389956 4.664724 178 58 46
-0.483986 -0.129576 4.530285 178 58 46
-0.536552 -0.519661 4.419886 178 58 46
-0.545298 -0.508642 4.419707 178 58 46
-0.512584 0.346937 4.456950 178 58 46
-0.377683 0.077143 4.709597 178 58 46
-0.492016 -0.347189 4.502373 178 58 46
-0.185449 -0.099698 5.058187 178 58 46
-0.399119 -0.227110 4.659353 178 58 46
-0.480653 -0.413330 4.522949 178 58 46
-0.156853 -0.104956 5.123764 178 58 46
-0.470985 0.304606 4.536147 178 58 46
-0.436213 -0.265417 4.607574 178 58 46
-0.268862 0.007854 4.943084 178 58 46
-0.320206 0.204870 4.819697 178 58 46
-0.523253 -0.514190 4.447235 178 58 46
-0.380080 -0.298985 4.714955 178 58 46
-0.492781 -0.225757 4.483870 178 58 46
0.018735 -0.030619 5.397743 60 60 65
-0.026049 -0.027054 5.399891 60 60 65
-0.029286 -0.012454 5.396581 60 60 65
0.029230 -0.004611 5.403094 60 60 65
-0.030900 -0.017892 5.425681 60 60 65
-0.015761 0.029511 5.419159 60 60 65
-0.021174 0.010965 5.418527 60 60 65
-0.023321 0.002529 5.422068 60 60 65
0.020209 -0.024860 5.442173 60 60 65
0.006693 -0.023826 5.437664 60 60 65
-0.032910 0.031955 5.431479 60 60 65
-0.020307 -0.001134 5.443726 60 60 65
0.023593 0.020676 5.450173 60 60 65
-0.016671 -0.018736 5.451372 60 60 65
0.016806 -0.029752 5.450254 60 60 65
0.013269 0.032652 5.458716 60 60 65
-0.030354 -0.018520 5.470666 60 60 65
0.008995 0.016965 5.472201 60 60 65
0.009095 -0.027969 5.474696 60 60 65
-0.003701 -0.033652 5.472663 60 60 65
0.018730 -0.013635 5.485834 60 60 65
-0.008017 0.026392 5.483482 60 60 65
0.005435 0.027834 5.485375 60 60 65
-0.025401 -0.011355 5.490153 60 60 65
0.033141 0.014925 5.506227 60 60 65
0.010555 -0.024430 5.514469 60 60 65
0.001222 0.024457 5.505966 60 60 65
0.013586 0.023937 5.506853 60 60 65
0.020083 0.027833 5.526404 60 60 65
-0.005042 -0.036724 5.517988 60 60 65
0.024349 0.007963 5.529400 60 60 65
-0.029727 0.010383 5.523575 60 60 65
0.012032 0.021743 5.545837 60 60 65
0.004293 -0.024009 5.543737 60 60 65
0.026169 0.009655 5.547706 60 60 65
0.005945 0.022933 5.545452 60 60 65
0.007053 -0.035791 5.563837 60 60 65
-0.032801 -0.000232 5.556916 60 60 65
0.023817 0.023897 5.563493 60 60 65
0.032891 0.005451 5.559615 60 60 65
-0.033651 0.027270 5.576726 60 60 65
-0.024173 0.007842 5.582908 60 60 65
0.009670 -0.032409 5.578961 60 60 65
-0.026867 0.000528 5.570969 60 60 65
0.012842 -0.028292 5.600720 60 60 65
-0.017945 0.000704 5.603405 60 60 65
0.000215 0.028100 5.593065 60 60 65
-0.028309 -0.015496 5.597244 60 60 65
0.013815 -0.018321 5.613624 60 60 65
-0.000800 0.037293 5.617676 60 60 65
-0.022426 -0.021128 5.615759 60 60 65
-0.027625 -0.008565 5.619153 60 60 65
-0.011201 -0.019611 5.630407 60 60 65
-0.009948 0.024334 5.635212 60 60 65
0.000991 0.031607 5.635561 60 60 65
-0.020608 -0.029836 5.633234 60 60 65
0.007539 -0.029804 5.651243 60 60 65
-0.034402 0.005312 5.644652 60 60 65
0.015985 0.025844 5.652339 60 60 65
0.020411 -0.027106 5.655897 60 60 65
-0.027117 -0.001512 5.662080 60 60 65
-0.017664 -0.036997 5.667308 60 60 65
0.014051 0.020850 5.668230 60 60 65
0.008284 -0.028128 5.670840 60 60 65
-0.019431 0.011445 5.691318 60 60 65
0.031729 -0.025470 5.684197 60 60 65
0.002317 0.038984 5.681807 60 60 65
0.021692 0.003093 5.690000 60 60 65
-0.024760 0.021043 5.704455 60 60 65
-0.006235 -0.024354 5.699519 60 60 65
-0.015673 -0.031802 5.698284 60 60 65
0.016262 -0.027264 5.706171 60 60 65
0.008212 0.020516 5.718965 60 60 65
-0.022812 -0.002033 5.721159 60 60 65
0.024323 0.005914 5.726019 60 60 65
-0.000265 0.021375 5.720645 60 60 65
0.034321 0.003041 5.737401 60 60 65
-0.014161 -0.023729 5.742950 60 60 65
0.018242 -0.015456 5.741639 60 60 65
-0.030155 -0.012792 5.737800 60 60 65
-0.023089 -0.015830 5.759463 60 60 65
0.028135 -0.012674 5.757210 60 60 65
-0.015410 0.023379 5.758850 60 60 65
-0.034381 -0.019527 5.756163 60 60 65
0.008098 -0.023642 5.779835 60 60 65
0.012756 0.027745 5.776782 60 60 65
-0.018700 -0.025807 5.777560 60 60 65
0.025144 0.014288 5.784408 60 60 65
-0.025461 0.026421 5.792338 60 60 65
0.009899 0.033063 5.793835 60 60 65
-0.032734 0.013560 5.797394 60 60 65
0.006407 0.032907 5.789876 60 60 65
0.031099 0.015380 5.811897 60 60 65
-0.035415 0.015861 5.811737 60 60 65
-0.024465 0.021288 5.805543 60 60 65
0.006199 -0.034484 5.812843 60 60 65
0.029609 0.004161 5.833645 60 60 65
-0.005569 -0.024750 5.829449 60 60 65
0.033229 0.007313 5.834803 60 60 65
-0.033391 0.010069 5.822074 60 60 65
0.028852 0.009979 5.854254 60 60 65
0.031756 -0.016359 5.843387 60 60 65
-0.025390 -0.001996 5.844712 60 60 65
-0.028599 0.013105 5.851507 60 60 65
0.024775 0.007469 5.870398 60 60 65
0.008458 -0.022984 5.869870 60 60 65
-0.006099 0.029072 5.862049 60 60 65
-0.028500 -0.005733 5.866872 60 60 65
-0.013667 -0.024526 5.887535 60 60 65
0.007135 -0.018588 5.891325 60 60 65
-0.023967 0.013655 5.886723 60 60 65
0.034934 0.004015 5.884909 60 60 65
0.023183 0.002610 5.904289 60 60 65
-0.000913 0.026990 5.901280 60 60 65
0.029458 0.015456 5.899624 60 60 65
-0.022251 -0.024640 5.896182 60 60 65
0.019295 -0.013461 5.917005 60 60 65
0.019834 0.006608 5.918215 60 60 65
0.036297 0.015946 5.915286 60 60 65
-0.006565 -0.020016 5.914432 60 60 65
-0.018594 -0.016131 5.933072 60 60 65
-0.002060 0.021780 5.934989 60 60 65
-0.013339 0.027462 5.940019 60 60 65
0.003591 -0.035547 5.942829 60 60 65
0.021663 0.015496 5.957963 60 60 65
0.004381 0.036366 5.953851 60 60 65
-0.021182 0.017831 5.958542 60 60 65
-0.002333 -0.029350 5.955497 60 60 65
-0.010445 0.026860 5.977209 60 60 65
0.035298 0.006549 5.974944 60 60 65
0.002608 -0.028506 5.977281 60 60 65
-0.005539 -0.016111 5.973762 60 60 65
0.012848 0.020865 5.993595 60 60 65
-0.013811 -0.030083 5.988779 60 60 65
-0.018780 -0.020714 5.992057 60 60 65
0.011546 0.011211 6.005689 60 60 65
-0.029987 -0.021270 6.007275 60 60 65
-0.025736 0.004302 6.013810 60 60 65
0.003921 -0.014975 6.014377 60 60 65
0.023917 -0.003097 6.016122 60 60 65
-0.020945 0.033551 6.018226 60 60 65
-0.010341 0.015877 6.024014 60 60 65
-0.019817 -0.022113 6.028109 60 60 65
0.015392 0.027691 6.057043 60 60 65
0.009372 0.038636 6.033250 60 60 65
0.013198 -0.030035 6.039785 60 60 65
-0.006197 -0.036958 6.057457 60 60 65
-0.083358 0.043679 6.034948 60 60 65
0.031921 0.029306 6.085587 60 60 65
0.014503 -0.017001 6.080393 60 60 65
-0.057541 0.047868 6.067774 60 60 65
-0.037827 -0.020430 6.078865 60 60 65
-0.003136 0.037090 6.109530 60 60 65
-0.003280 -0.026903 6.102834 60 60 65
